<svg width="275" height="165" viewBox="0 0 275 165" fill="none" xmlns="http://www.w3.org/2000/svg">
<path d="M60.9534 0.846241C81.3534 -4.35376 89.7867 15.6796 91.4534 26.3462C84.6201 34.0129 70.7534 47.8463 69.9534 41.8463C68.9534 34.3463 64.9534 35.3463 60.9534 34.8463C56.9534 34.3463 39.4534 46.8463 22.9534 49.3463C10.0273 51.3047 2.75892 30.0892 0.584759 18.5655C-0.280255 17.9216 -0.0645153 17.7723 0.453392 17.8463C0.494897 18.0814 0.538685 18.3213 0.584759 18.5655C1.66832 19.3721 4.44774 20.9546 10.4534 23.8463C23.9534 30.3463 35.4534 7.34624 60.9534 0.846241Z" fill="#393939"/>
<path d="M221.014 5.11598C202.946 0.386129 195.476 18.6082 194 28.3105C200.052 35.284 212.334 47.8666 213.042 42.4091C213.928 35.5872 217.471 36.4968 221.014 36.042C224.557 35.5872 240.056 46.957 254.67 49.231C266.119 51.0124 272.556 31.715 274.482 21.2332C275.248 20.6475 275.057 20.5117 274.598 20.579C274.562 20.7929 274.523 21.0111 274.482 21.2332C273.522 21.9668 271.061 23.4063 265.741 26.0365C253.785 31.9488 243.599 11.0283 221.014 5.11598Z" fill="#393939"/>
<path d="M76.9534 44.3463L90.4534 32.3463V35.8463C87.2867 40.1796 80.6534 48.9463 79.4534 49.3463C78.2534 49.7463 77.2867 46.1796 76.9534 44.3463Z" fill="#FFA4A4"/>
<path d="M207 44.6198L195 33.3463V36.6344C197.815 40.7054 203.711 48.9413 204.778 49.3171C205.844 49.6929 206.704 46.3421 207 44.6198Z" fill="#FFA4A4"/>
<g filter="url(#filter0_d)">
<path d="M186.609 103.233C150.209 132.433 112.443 115.4 98.1094 103.233C90.2761 103.233 73.9094 106.333 71.1094 118.733C68.3094 131.133 119.943 149.233 146.109 156.733C169.443 150.233 216.009 133.533 215.609 118.733C215.209 103.933 196.109 102.233 186.609 103.233Z" fill="url(#paint0_linear)"/>
</g>
<path d="M195.5 41C155.1 9 107.333 27.6667 88.5 41C70.5 82.5 82 86.5 88.5 97C95 107.5 169.5 114 195.5 97C216.3 83.4 204.167 54 195.5 41Z" fill="#FFECEC"/>
<path d="M151.5 90.5C152 91.8333 153.5 94.7 155.5 95.5" stroke="#999999"/>
<path d="M133 93.5C138 96 149.1 99.5 153.5 93.5" stroke="#999999"/>
<path d="M107.5 63.5C109.5 61.1667 115.6 57.2 124 60" stroke="black"/>
<path d="M174 63C171.939 60.9088 165.655 57.3536 157 59.8631" stroke="black"/>
<circle cx="164.5" cy="71.5" r="9.5" fill="#0C0C0C"/>
<circle cx="117.5" cy="70.5" r="9.5" fill="#0C0C0C"/>
<circle cx="166" cy="65" r="1" fill="white"/>
<circle cx="169" cy="67" r="1" fill="white"/>
<circle cx="120" cy="65" r="1" fill="white"/>
<circle cx="123" cy="67" r="1" fill="white"/>
<path d="M170 64.6053C171.111 65.0088 173.667 65.4526 175 64" stroke="black"/>
<path d="M111 65.6053C109.889 66.0088 107.333 66.4526 106 65" stroke="black"/>
<path d="M173 67.5C173.667 67.8333 175.2 68.2 176 67" stroke="black"/>
<path d="M108 68.6053C107.333 69.0088 105.8 69.4526 105 68" stroke="black"/>
<path d="M139.5 24.0485C94.7 22.8485 83.1667 44.2152 83 55.0485C86.6 55.0485 88.5 58.3818 89 59.5485C96.6 70.7485 120.833 60.2152 132 53.5485C135.2 45.5485 140.667 42.8818 143 42.5485C139.4 46.9485 138.5 51.7152 138.5 53.5485C149.7 53.1485 157.5 39.7152 160 33.0485C163.6 49.0485 189.833 54.3818 202.5 55.0485C197.5 44.5485 195.5 25.5485 139.5 24.0485Z" fill="#393939"/>
<defs>
<filter id="filter0_d" x="67" y="103" width="152.612" height="61.733" filterUnits="userSpaceOnUse" color-interpolation-filters="sRGB">
<feFlood flood-opacity="0" result="BackgroundImageFix"/>
<feColorMatrix in="SourceAlpha" type="matrix" values="0 0 0 0 0 0 0 0 0 0 0 0 0 0 0 0 0 0 127 0"/>
<feOffset dy="4"/>
<feGaussianBlur stdDeviation="2"/>
<feColorMatrix type="matrix" values="0 0 0 0 0 0 0 0 0 0 0 0 0 0 0 0 0 0 0.25 0"/>
<feBlend mode="normal" in2="BackgroundImageFix" result="effect1_dropShadow"/>
<feBlend mode="normal" in="SourceGraphic" in2="effect1_dropShadow" result="shape"/>
</filter>
<linearGradient id="paint0_linear" x1="143.306" y1="103" x2="143.306" y2="156.733" gradientUnits="userSpaceOnUse">
<stop stop-color="#FFAAAA"/>
<stop offset="1" stop-color="#E478FF"/>
</linearGradient>
</defs>
</svg>
