<svg height="512.001pt" viewBox="0 0 512.001 512.001" width="512.001pt" xmlns="http://www.w3.org/2000/svg"><path d="m331.058594 19.910156c-16.542969-16.546875-43.367188-16.546875-59.914063 0l-15.144531 15.144532-15.144531-15.144532c-16.546875-16.546875-43.371094-16.546875-59.914063 0-16.546875 16.542969-16.546875 43.367188 0 59.914063l15.144532 15.144531 56.445312 56.441406c1.914062 1.917969 5.023438 1.917969 6.9375 0l56.445312-56.441406 15.144532-15.144531c16.542968-16.546875 16.542968-43.371094 0-59.914063zm0 0" fill="#f46262"/><path d="m236.085938 94.96875-15.144532-15.148438c-16.546875-16.542968-16.546875-43.367187 0-59.914062 3.019532-3.015625 6.378906-5.476562 9.957032-7.394531-16.035157-8.589844-36.429688-6.128907-49.957032 7.394531-16.546875 16.546875-16.546875 43.371094 0 59.914062l15.144532 15.148438 56.445312 56.441406c1.914062 1.917969 5.023438 1.917969 6.9375 0l16.53125-16.527344zm0 0" fill="#d65b5b"/><path d="m73.265625 468.097656h-35.3125c-6.441406 0-11.667969-5.222656-11.667969-11.664062v-216.042969c0-58.316406 47.277344-105.589844 105.59375-105.589844s105.589844 47.273438 105.589844 105.589844v63.503906c0 90.6875-73.515625 164.203125-164.203125 164.203125zm0 0" fill="#92d8ff"/><path d="m76.289062 240.390625c0-49.703125 34.34375-91.375 80.589844-102.605469-8.015625-1.945312-16.386718-2.984375-25-2.984375-58.316406 0-105.589844 47.273438-105.589844 105.589844v216.042969c0 6.445312 5.222657 11.664062 11.664063 11.664062h35.3125c1.007813 0 2.015625-.019531 3.023437-.035156zm0 0" fill="#66d3d0"/><path d="m29.273438 435.339844h-10.109376c-6.441406 0-11.664062-5.222656-11.664062-11.664063v-90.082031c0-33.933594 27.507812-61.4375 61.4375-61.4375s61.4375 27.503906 61.4375 61.4375v.644531c0 55.835938-45.265625 101.101563-101.101562 101.101563zm0 0" fill="#bdebff"/><path d="m161.179688 225.988281c-11.898438 0-22.433594 4.273438-30.191407 8.734375-8.265625 4.753906-11.179687 15.289063-6.585937 23.644532 8.78125 15.964843 24.183594 40.199218 36.777344 40.199218s27.996093-24.230468 36.777343-40.199218c4.59375-8.355469 1.679688-18.890626-6.585937-23.644532-7.757813-4.460937-18.292969-8.734375-30.191406-8.734375zm0 0" fill="#ffde55"/><path d="m154.402344 258.367188c-4.59375-8.355469-1.679688-18.890626 6.585937-23.644532 4.292969-2.46875 9.4375-4.875 15.191407-6.539062-4.644532-1.339844-9.683594-2.195313-15-2.195313-11.902344 0-22.4375 4.273438-30.191407 8.734375-8.265625 4.753906-11.179687 15.285156-6.585937 23.644532 8.78125 15.964843 24.183594 40.199218 36.777344 40.199218 4.769531 0 9.9375-3.476562 15-8.660156-8.308594-8.507812-16.320313-21.617188-21.777344-31.539062zm0 0" fill="#ffcd00"/><path d="m438.734375 468.097656h35.3125c6.441406 0 11.664063-5.222656 11.664063-11.664062v-216.042969c0-58.316406-47.273438-105.589844-105.589844-105.589844s-105.589844 47.273438-105.589844 105.589844v63.503906c0 90.6875 73.515625 164.203125 164.203125 164.203125zm0 0" fill="#ffde55"/><path d="m324.53125 303.890625v-63.5c0-49.703125 34.34375-91.375 80.589844-102.605469-8.015625-1.945312-16.386719-2.984375-25-2.984375-58.316406 0-105.589844 47.273438-105.589844 105.589844v63.503906c0 90.6875 73.515625 164.207031 164.207031 164.207031h35.308594c1.058594 0 2.074219-.15625 3.046875-.417968-85.253906-5.972656-152.5625-77.019532-152.5625-163.792969zm0 0" fill="#ffcd00"/><path d="m482.726562 435.339844h10.109376c6.441406 0 11.664062-5.222656 11.664062-11.664063v-90.082031c0-33.933594-27.507812-61.4375-61.4375-61.4375s-61.4375 27.503906-61.4375 61.4375v.644531c0 55.835938 45.265625 101.101563 101.101562 101.101563zm0 0" fill="#ffeb99"/><path d="m350.820312 225.988281c11.898438 0 22.433594 4.273438 30.191407 8.734375 8.265625 4.753906 11.179687 15.289063 6.585937 23.644532-8.78125 15.964843-24.183594 40.199218-36.777344 40.199218s-27.996093-24.230468-36.777343-40.199218c-4.59375-8.355469-1.679688-18.890626 6.585937-23.644532 7.757813-4.460937 18.292969-8.734375 30.191406-8.734375zm0 0" fill="#ff9478"/><path d="m344.042969 258.367188c-4.59375-8.355469-1.679688-18.890626 6.585937-23.644532 4.292969-2.46875 9.4375-4.875 15.191406-6.539062-4.644531-1.339844-9.683593-2.195313-15-2.195313-11.902343 0-22.433593 4.273438-30.191406 8.734375-8.265625 4.753906-11.179687 15.285156-6.585937 23.644532 8.78125 15.964843 24.183593 40.199218 36.777343 40.199218 4.769532 0 9.9375-3.476562 15-8.660156-8.308593-8.507812-16.320312-21.617188-21.777343-31.539062zm0 0" fill="#ff7956"/><path d="m117.832031 261.980469c6.066407 11.03125 12.019531 20.179687 17.699219 27.195312 9.207031 11.363281 17.597656 16.890625 25.648438 16.890625 8.050781 0 16.441406-5.527344 25.644531-16.890625 5.679687-7.015625 11.636719-16.164062 17.703125-27.195312 6.527344-11.875 2.300781-27.019531-9.421875-33.761719-11.226563-6.457031-22.640625-9.730469-33.925781-9.730469-11.289063 0-22.703126 3.273438-33.929688 9.730469-11.722656 6.742188-15.945312 21.886719-9.417969 33.761719zm16.898438-20.757813c8.921875-5.132812 17.820312-7.734375 26.449219-7.734375 8.628906 0 17.527343 2.601563 26.449218 7.734375 4.6875 2.699219 6.375 8.765625 3.753906 13.53125-15.765624 28.664063-26.402343 36.3125-30.203124 36.3125-3.800782 0-14.441407-7.648437-30.203126-36.3125-2.621093-4.765625-.9375-10.832031 3.753907-13.53125zm0 0"/><path d="m147.566406 205.984375v-13.148437c0-4.144532-3.355468-7.5-7.5-7.5-4.144531 0-7.5 3.355468-7.5 7.5v13.148437c0 4.144531 3.355469 7.5 7.5 7.5 4.144532 0 7.5-3.355469 7.5-7.5zm0 0"/><path d="m189.792969 205.984375v-13.148437c0-4.144532-3.355469-7.5-7.5-7.5s-7.5 3.355468-7.5 7.5v13.148437c0 4.144531 3.355469 7.5 7.5 7.5s7.5-3.355469 7.5-7.5zm0 0"/><path d="m131.878906 127.300781c-62.359375 0-113.089844 50.730469-113.089844 113.089844v45.976563c-11.636718 12.347656-18.789062 28.960937-18.789062 47.226562v90.082031c0 10.4375 8.394531 18.941407 18.789062 19.144531v13.613282c0 10.566406 8.597657 19.164062 19.164063 19.164062h35.3125c3.683594 0 7.339844-.128906 10.964844-.359375l-2.117188 15.714844c-.714843 5.308594.898438 10.667969 4.421875 14.699219 3.527344 4.035156 8.621094 6.347656 13.980469 6.347656h11.222656c4.140625 0 7.5-3.355469 7.5-7.5 0-4.140625-3.359375-7.5-7.5-7.5h-11.222656c-1.410156 0-2.289063-.761719-2.6875-1.21875-.398437-.453125-1.039063-1.425781-.847656-2.824219l2.609375-19.375c13.511718-2.089843 26.503906-5.765625 38.789062-10.820312l-3.800781 28.191406c-.714844 5.308594.898437 10.667969 4.421875 14.699219 3.527344 4.035156 8.621094 6.347656 13.980469 6.347656h11.222656c4.144531 0 7.5-3.355469 7.5-7.5 0-4.140625-3.355469-7.5-7.5-7.5h-11.222656c-1.410157 0-2.289063-.761719-2.683594-1.21875-.398437-.453125-1.039063-1.425781-.851563-2.824219l5.101563-37.851562c53.789063-29.027344 90.421875-85.921875 90.421875-151.210938v-20.660156c0-4.144531-3.355469-7.5-7.5-7.5-4.140625 0-7.5 3.355469-7.5 7.5v20.660156c0 86.40625-70.296875 156.707031-156.703125 156.707031h-35.3125c-2.296875 0-4.164063-1.871093-4.164063-4.167968v-13.695313c57.796876-2.375 104.085938-50.128906 104.085938-108.496093v-.648438c0-38.011719-30.925781-68.9375-68.9375-68.9375-12.832031 0-24.851562 3.535156-35.148438 9.667969v-33.933594c0-54.085937 44-98.089844 98.089844-98.089844s98.089844 44 98.089844 98.089844v14.59375c0 4.144531 3.359375 7.5 7.5 7.5 4.144531 0 7.5-3.355469 7.5-7.5v-14.59375c0-62.359375-50.730469-113.089844-113.089844-113.089844zm-62.941406 152.355469c29.742188 0 53.9375 24.195312 53.9375 53.9375v.644531c0 51.613281-41.988281 93.601563-93.597656 93.601563h-10.113282c-2.296874 0-4.164062-1.867188-4.164062-4.164063v-90.082031c0-29.742188 24.195312-53.9375 53.9375-53.9375zm0 0"/><path d="m493.210938 286.363281v-45.972656c0-62.359375-50.730469-113.089844-113.089844-113.089844s-113.089844 50.730469-113.089844 113.089844v63.503906c0 65.289063 36.632812 122.179688 90.421875 151.210938l5.101563 37.851562c.1875 1.394531-.449219 2.367188-.847657 2.824219-.398437.457031-1.277343 1.21875-2.6875 1.21875h-11.222656c-4.140625 0-7.5 3.359375-7.5 7.5s3.359375 7.5 7.5 7.5h11.222656c5.359375 0 10.453125-2.3125 13.980469-6.347656 3.523438-4.035156 5.136719-9.390625 4.421875-14.699219l-3.800781-28.191406c12.285156 5.050781 25.277344 8.730469 38.789062 10.816406l2.613282 19.378906c.1875 1.394531-.453126 2.367188-.851563 2.824219-.398437.453125-1.273437 1.21875-2.683594 1.21875h-11.222656c-4.144531 0-7.5 3.355469-7.5 7.5 0 4.140625 3.355469 7.5 7.5 7.5h11.222656c5.355469 0 10.449219-2.3125 13.976563-6.347656s5.136718-9.390625 4.421875-14.703125l-2.117188-15.714844c3.628907.230469 7.28125.363281 10.96875.363281h35.3125c10.566407 0 19.164063-8.597656 19.164063-19.167968v-13.609376c10.390625-.203124 18.785156-8.707031 18.785156-19.144531v-90.082031c0-18.265625-7.152344-34.878906-18.789062-47.230469zm3.789062 137.3125c0 2.296875-1.867188 4.164063-4.164062 4.164063h-10.109376c-40.949218 0-77.800781-27.347656-89.621093-66.503906-1.195313-3.964844-5.390625-6.207032-9.347657-5.015626-3.964843 1.199219-6.210937 5.382813-5.011718 9.351563 6.597656 21.859375 20.320312 41.507813 38.644531 55.324219 17.746094 13.386718 38.6875 20.859375 60.820313 21.75v13.6875c0 2.296875-1.867188 4.167968-4.164063 4.167968h-35.3125c-86.40625 0-156.707031-70.300781-156.707031-156.707031v-63.503906c0-54.085937 44.003906-98.089844 98.09375-98.089844 54.085937 0 98.089844 44 98.089844 98.089844v33.929687c-10.300782-6.128906-22.316407-9.664062-35.148438-9.664062-38.011719 0-68.9375 30.925781-68.9375 68.9375v.644531c0 .457031 0 .914063.007812 1.367188.058594 4.140625 3.5 7.421875 7.605469 7.394531 4.140625-.058594 7.449219-3.460938 7.394531-7.605469-.003906-.382812-.007812-.769531-.007812-1.152343v-.648438c0-29.738281 24.195312-53.9375 53.9375-53.9375s53.9375 24.195312 53.9375 53.9375zm0 0"/><path d="m394.167969 261.980469c6.527343-11.875 2.304687-27.019531-9.417969-33.761719-11.226562-6.457031-22.644531-9.730469-33.929688-9.730469-11.289062 0-22.703124 3.273438-33.929687 9.730469-11.722656 6.742188-15.949219 21.886719-9.417969 33.761719 6.066406 11.03125 12.019532 20.179687 17.699219 27.191406 9.207031 11.367187 17.59375 16.894531 25.648437 16.894531 8.050782 0 16.441407-5.527344 25.644532-16.894531 5.683594-7.011719 11.636718-16.160156 17.703125-27.191406zm-43.347657 29.085937c-3.800781 0-14.4375-7.648437-30.203124-36.3125-2.621094-4.765625-.9375-10.832031 3.753906-13.53125 8.921875-5.128906 17.820312-7.734375 26.449218-7.734375 8.628907 0 17.527344 2.605469 26.449219 7.734375 4.691407 2.699219 6.375 8.769532 3.753907 13.53125-15.761719 28.664063-26.402344 36.3125-30.203126 36.3125zm0 0"/><path d="m371.933594 213.484375c4.144531 0 7.5-3.355469 7.5-7.5v-13.148437c0-4.144532-3.355469-7.5-7.5-7.5-4.144532 0-7.5 3.355468-7.5 7.5v13.148437c0 4.144531 3.355468 7.5 7.5 7.5zm0 0"/><path d="m329.707031 213.484375c4.144531 0 7.5-3.355469 7.5-7.5v-13.148437c0-4.144532-3.355469-7.5-7.5-7.5s-7.5 3.355468-7.5 7.5v13.148437c0 4.144531 3.355469 7.5 7.5 7.5zm0 0"/><path d="m350.96875 49.863281c0-13.316406-5.1875-25.839843-14.605469-35.257812-9.421875-9.417969-21.941406-14.605469-35.261719-14.605469-13.316406 0-25.839843 5.1875-35.257812 14.605469l-9.84375 9.839843-9.839844-9.839843c-9.421875-9.417969-21.941406-14.605469-35.261718-14.605469-13.320313 0-25.84375 5.1875-35.261719 14.605469s-14.605469 21.941406-14.605469 35.257812c0 13.320313 5.1875 25.84375 14.605469 35.261719l71.589843 71.589844c2.34375 2.34375 5.457032 3.632812 8.773438 3.632812 3.3125 0 6.429688-1.289062 8.773438-3.632812l71.585937-71.589844c9.421875-9.417969 14.609375-21.941406 14.609375-35.261719zm-25.210938 24.65625-69.757812 69.753907-69.753906-69.753907c-6.585938-6.585937-10.214844-15.339843-10.214844-24.65625 0-9.3125 3.628906-18.066406 10.214844-24.652343 6.582031-6.585938 15.339844-10.210938 24.652344-10.210938s18.066406 3.625 24.652343 10.210938l15.144531 15.144531c2.929688 2.929687 7.679688 2.929687 10.605469 0l15.148438-15.144531c6.585937-6.585938 15.339843-10.210938 24.652343-10.210938s18.070313 3.625 24.65625 10.210938c6.582032 6.585937 10.210938 15.34375 10.210938 24.652343 0 9.316407-3.628906 18.070313-10.210938 24.65625zm0 0"/></svg>